<svg xmlns="http://www.w3.org/2000/svg" width="1040" height="1560" viewBox="0 0 1040 1560" font-family="Menlo, Consolas, monospace">
<rect width="1040" height="1560" fill="#07071a"/>
<defs><linearGradient id="sea" x1="0" y1="0" x2="1" y2="0">
<stop offset="0" stop-color="#0a2036"/><stop offset="1" stop-color="#07071a"/>
</linearGradient></defs>
<rect width="312" height="1560" fill="url(#sea)"/>
<polyline points="744.9,630.4 743.4,629.7 739.9,628.0 721.2,618.9 708.3,631.8 707.2,632.9" fill="none" stroke="#2c2050" stroke-width="2.5" opacity="0.9"/>
<polyline points="457.5,673.1 436.0,683.7 426.2,688.9 422.9,690.5 420.4,691.6 413.8,694.4 406.8,697.2 400.5,699.5 391.4,703.4 380.7,707.5 369.5,710.2 350.9,715.1 340.6,717.9 332.1,720.7 326.9,722.3 312.7,725.2 307.4,726.9 291.8,728.9 289.0,728.7 283.6,727.8" fill="none" stroke="#2c2050" stroke-width="5" opacity="0.9"/>
<polyline points="478.4,694.9 482.2,692.5 490.6,687.2 499.1,681.7 503.5,678.9 511.8,674.3 518.1,671.1 524.7,669.5 530.7,668.1 532.0,667.8 543.9,664.6 554.4,661.7 565.4,658.5 566.7,658.1 570.5,656.9 574.3,655.1 576.0,654.2 582.4,650.6 584.0,649.6 592.1,644.1 592.9,643.6 593.9,642.9 597.7,640.6" fill="none" stroke="#2c2050" stroke-width="5" opacity="0.9"/>
<polyline points="808.8,203.7 809.6,203.1 814.3,198.9 817.5,195.8 817.8,195.6 824.8,188.9 829.5,184.2 832.8,180.8 838.8,174.9 839.6,174.1 841.9,171.9 845.9,168.1 848.9,165.1 857.4,156.8 863.0,151.2 866.2,148.3 875.0,139.8 891.3,122.8 892.8,121.3 896.0,117.6 901.7,111.7 907.5,105.6 910.3,102.8 915.9,97.1 920.0,92.7 920.7,91.9 920.9,91.6 925.9,85.8 931.1,80.5 937.9,73.5 944.5,67.1 949.7,61.6 962.8,49.1 975.0,36.3" fill="none" stroke="#2c2050" stroke-width="2.5" opacity="0.9"/>
<polyline points="801.6,212.0 797.7,215.2" fill="none" stroke="#2c2050" stroke-width="5" opacity="0.9"/>
<polyline points="297.2,1031.5 297.6,1034.3 299.3,1045.1 300.1,1050.1 302.2,1061.8 306.0,1082.7 307.6,1092.4 309.2,1099.2 309.8,1102.2 311.7,1109.7 312.6,1113.4 314.2,1120.8 314.4,1121.8" fill="none" stroke="#2c2050" stroke-width="2.5" opacity="0.9"/>
<polyline points="582.3,740.0 583.1,734.8 583.6,731.6 584.5,726.4 585.1,725.9 585.4,725.5 586.6,724.9 588.5,724.5 589.7,724.4 601.5,723.0" fill="none" stroke="#2c2050" stroke-width="5" opacity="0.9"/>
<polyline points="712.4,369.5 711.8,373.0 706.8,393.6 698.9,420.1 682.1,451.8 660.9,489.3 640.9,515.5 624.0,535.0 603.5,556.1 574.8,580.8 531.2,613.0 509.5,628.1 488.7,641.1 478.4,646.5 465.4,644.8 450.2,652.5 449.1,656.9 449.0,657.0 448.1,659.5 447.0,662.1 445.5,664.7 444.1,666.6 441.9,668.3 438.7,669.9 430.4,674.0 425.7,676.4 419.5,679.5 413.6,682.6 410.4,684.2 406.5,686.2 398.0,689.9 385.0,694.8 376.1,697.9 368.8,700.2 356.7,704.0 348.8,706.4 348.4,706.6 340.0,708.8 337.8,709.4 325.3,711.1 307.1,712.9 295.6,713.1 286.0,712.9 283.4,712.0 283.1,711.7 277.7,707.8 273.7,706.5 267.4,705.4 255.2,704.9 234.2,701.4 222.8,698.9 204.7,692.8 190.5,688.0 178.9,668.9 175.6,667.4 174.9,665.5 176.0,663.1 174.2,656.7 172.5,654.7 160.3,645.5 153.6,636.8 146.4,630.3 137.1,623.7 135.7,619.7 136.2,616.0 119.5,616.7 115.3,623.8 110.1,630.5 107.1,639.1 104.2,646.8 98.8,654.8 98.1,662.1 96.8,671.5 90.6,688.5 82.0,709.4 65.1,721.4 61.7,722.5 47.2,723.0 37.0,719.6 34.3,776.8 45.8,1107.4 50.4,1110.1 69.0,1126.3 95.9,1149.7 152.1,1194.1 229.9,1250.3 252.3,1264.7 296.2,1298.7 308.2,1307.3 321.2,1316.5 353.4,1345.1 389.9,1376.5 429.9,1409.0 468.7,1441.7 505.4,1473.0 519.9,1487.1" fill="none" stroke="#caa96a" stroke-width="3" opacity="0.85"/>
<polyline points="772.5,784.2 766.5,782.0 753.2,777.5 751.7,777.0 750.5,776.6 737.8,772.4 718.6,765.9 716.4,765.2 711.3,763.5 705.6,761.6 686.5,755.2 686.0,755.0 677.1,752.1 668.9,749.3 668.3,749.1 666.4,748.5 664.1,747.9 663.4,747.8 654.7,746.2 638.7,744.9 634.7,744.6 627.6,744.0 624.8,743.7 615.0,742.9 604.8,742.0 603.0,741.8 593.0,740.9 587.1,740.4 582.3,740.0 571.3,739.2 569.9,739.1 560.4,738.4 549.4,737.6 542.1,737.1 536.2,736.5 531.9,735.6 527.2,734.2 521.5,731.4 514.2,726.7 502.4,718.2 496.6,713.4 495.5,712.3 494.3,711.1 492.9,709.7 489.7,706.3 489.2,705.8 488.1,704.6 484.7,701.2 481.7,698.4 478.4,694.9" fill="none" stroke="#2c2050" stroke-width="5" opacity="0.9"/>
<polyline points="795.9,497.4 786.8,495.0 780.2,493.2 776.7,492.3" fill="none" stroke="#2c2050" stroke-width="5" opacity="0.9"/>
<polyline points="776.7,492.3 771.8,491.1 761.7,488.5 746.6,484.7 726.6,479.6 706.2,474.3 699.4,472.6 698.5,472.4 697.6,472.2 696.2,471.8" fill="none" stroke="#2c2050" stroke-width="5" opacity="0.9"/>
<polyline points="403.1,754.9 405.5,753.5 406.1,753.1 409.7,750.9 411.0,749.7 412.1,748.5 412.7,746.5 412.7,746.1 412.7,744.6 413.6,739.2 414.7,735.2 415.7,733.7 431.4,721.4 432.6,720.5 436.7,717.3 437.9,716.5 443.9,713.1 451.2,709.9" fill="none" stroke="#2c2050" stroke-width="5" opacity="0.9"/>
<polyline points="372.9,778.1 383.9,785.8 387.8,789.2 388.6,791.1 389.1,794.0 389.2,795.0 389.4,796.5" fill="none" stroke="#2c2050" stroke-width="2.5" opacity="0.9"/>
<polyline points="231.0,781.5 229.8,781.8 226.0,782.5 223.6,776.5 224.4,773.2 227.8,775.6 228.5,775.5 231.0,781.5" fill="none" stroke="#2c2050" stroke-width="2.5" opacity="0.9"/>
<polyline points="692.4,467.7 689.2,473.9" fill="none" stroke="#2c2050" stroke-width="5" opacity="0.9"/>
<polyline points="797.7,215.2 791.7,220.6 786.5,224.9 783.1,226.4 778.6,228.4 773.7,229.8 732.7,240.5 725.7,242.5 724.7,243.3 724.0,244.4" fill="none" stroke="#2c2050" stroke-width="5" opacity="0.9"/>
<polyline points="689.2,473.9 687.7,476.3 687.4,476.8 686.3,478.5 683.8,482.6 678.2,491.0 675.7,494.4 669.8,502.5 669.8,502.6 669.4,503.0 667.7,505.5 666.8,506.7 655.0,522.1 652.5,524.9 651.2,526.4 643.9,534.6 632.6,546.0 632.2,546.5 626.7,552.1 621.6,557.0 619.3,559.2 615.2,563.2 614.5,563.9 606.0,571.2 601.1,575.6 589.1,586.3 577.5,595.5 563.7,606.0 560.7,608.0 560.2,608.4 556.6,610.8 548.9,616.0 533.7,626.2 533.2,626.6 531.2,627.9 530.1,628.6 525.0,632.1 521.7,634.2 511.2,640.8 500.0,647.7 499.6,647.9 498.0,648.8 488.9,654.6 487.9,655.1 481.0,659.2 480.7,659.4 475.6,662.5 471.5,664.8 471.1,665.1 464.6,668.8 457.5,673.1" fill="none" stroke="#2c2050" stroke-width="5" opacity="0.9"/>
<polyline points="451.2,709.9 455.4,708.0 457.1,707.2 470.0,700.1 473.8,697.8 474.7,697.4 478.4,694.9" fill="none" stroke="#2c2050" stroke-width="5" opacity="0.9"/>
<polyline points="692.4,467.7 693.1,469.3 693.8,470.2 695.1,471.2 696.2,471.8" fill="none" stroke="#2c2050" stroke-width="5" opacity="0.9"/>
<polyline points="696.2,471.8 694.4,472.1 692.5,472.4 690.8,473.0 689.2,473.9" fill="none" stroke="#2c2050" stroke-width="5" opacity="0.9"/>
<polyline points="993.8,226.6 982.2,225.5 963.5,224.1 960.5,223.9 952.5,223.4 951.1,223.3 925.6,221.5 909.9,220.4 908.1,220.2 902.6,219.6 896.7,219.1 885.0,218.2" fill="none" stroke="#2c2050" stroke-width="5" opacity="0.9"/>
<polyline points="930.0,219.5 947.7,220.6 950.1,220.8 951.3,220.9 952.9,221.0 961.7,221.6 968.4,222.0" fill="none" stroke="#2c2050" stroke-width="5" opacity="0.9"/>
<polyline points="885.4,216.0 891.8,216.5 895.5,216.8 897.0,216.9 902.1,217.3" fill="none" stroke="#2c2050" stroke-width="5" opacity="0.9"/>
<polyline points="808.3,209.7 813.7,210.1 814.0,210.2 815.3,210.3 835.4,211.9 843.5,212.6 855.1,213.5 867.1,214.5 876.4,215.2 885.4,216.0" fill="none" stroke="#2c2050" stroke-width="5" opacity="0.9"/>
<polyline points="968.4,222.0 992.0,224.2" fill="none" stroke="#2c2050" stroke-width="5" opacity="0.9"/>
<polyline points="902.1,217.3 908.4,217.8 910.4,217.9 930.0,219.5" fill="none" stroke="#2c2050" stroke-width="5" opacity="0.9"/>
<polyline points="819.4,228.4 817.5,226.4 810.4,218.6 806.3,215.1 804.3,213.4" fill="none" stroke="#2c2050" stroke-width="5" opacity="0.9"/>
<polyline points="724.0,244.4 723.9,245.5 727.1,267.0 727.4,269.6 727.7,271.8 727.8,272.2 728.6,277.2 729.3,282.7 730.6,291.2 730.9,294.9 731.0,295.6 731.9,307.1 732.1,311.5 732.1,312.2 732.3,319.4 732.1,329.7 732.1,330.2 732.1,331.0 732.3,335.0 732.0,347.1 731.6,354.8 730.2,365.3 729.3,370.0 728.5,374.0 724.5,393.6 723.6,397.0 723.4,397.6 722.6,400.5 719.7,409.3 716.1,418.3 715.3,420.3 715.0,421.0 713.4,424.9 712.9,426.2 706.4,439.6 706.1,440.3 700.3,452.3 693.6,465.5 692.4,467.7" fill="none" stroke="#2c2050" stroke-width="5" opacity="0.9"/>
<polyline points="776.7,492.3 779.0,487.3 783.0,477.2" fill="none" stroke="#2c2050" stroke-width="5" opacity="0.9"/>
<polyline points="783.0,477.2 785.5,470.3 786.5,467.4 792.3,451.4 793.7,447.4 795.3,443.0 796.7,438.9 796.9,438.4 798.1,435.1" fill="none" stroke="#2c2050" stroke-width="5" opacity="0.9"/>
<polyline points="1004.5,549.0 995.8,546.9 995.2,546.7 993.5,546.3" fill="none" stroke="#2c2050" stroke-width="5" opacity="0.9"/>
<polyline points="457.5,673.1 460.7,676.4 465.8,681.7 475.0,691.4 478.4,694.9" fill="none" stroke="#2c2050" stroke-width="5" opacity="0.9"/>
<polyline points="931.0,531.3 928.9,530.8 927.9,530.6 925.3,529.9 921.1,528.8 909.3,525.9 895.9,522.5 884.3,519.6" fill="none" stroke="#2c2050" stroke-width="5" opacity="0.9"/>
<polyline points="389.4,796.5 389.2,799.4 387.7,803.7 385.4,810.8 384.3,814.2 381.7,823.6 376.9,841.2 374.8,850.7 371.2,867.9 370.9,869.5 367.9,892.4 366.4,898.6 362.9,911.1 358.5,923.0 355.4,930.7 352.7,936.8 348.2,946.2 341.1,959.0 336.6,965.4 331.5,971.3 316.0,986.4 315.2,987.3" fill="none" stroke="#2c2050" stroke-width="2.5" opacity="0.9"/>
<polyline points="372.9,778.1 373.4,776.9 374.6,772.5 375.6,770.2 378.2,766.7 380.7,764.0 384.5,761.5 389.5,759.8 393.2,758.7 397.1,757.4 403.1,754.9" fill="none" stroke="#2c2050" stroke-width="5" opacity="0.9"/>
<polyline points="229.8,781.8 232.4,787.0 238.2,796.0 239.0,797.2" fill="none" stroke="#2c2050" stroke-width="2.5" opacity="0.9"/>
<polyline points="384.3,806.1 386.1,801.2 386.8,799.5" fill="none" stroke="#2c2050" stroke-width="2.5" opacity="0.9"/>
<polyline points="386.8,799.5 387.5,796.6" fill="none" stroke="#2c2050" stroke-width="2.5" opacity="0.9"/>
<polyline points="312.8,986.3 329.5,970.1 330.1,969.4 334.5,964.4 338.9,958.3 343.5,950.0 343.9,949.2 348.6,939.6 350.2,936.3" fill="none" stroke="#2c2050" stroke-width="2.5" opacity="0.9"/>
<polyline points="367.5,874.6 368.2,869.3 368.6,867.6 371.8,852.6 374.4,841.9 375.5,836.3 376.6,830.9 376.7,830.4 377.1,828.7 378.5,824.1 380.5,817.7" fill="none" stroke="#2c2050" stroke-width="2.5" opacity="0.9"/>
<polyline points="380.5,817.7 382.3,812.2 382.9,810.4" fill="none" stroke="#2c2050" stroke-width="2.5" opacity="0.9"/>
<polyline points="382.9,810.4 384.3,806.1" fill="none" stroke="#2c2050" stroke-width="2.5" opacity="0.9"/>
<polyline points="350.2,936.3 352.9,930.3 355.9,923.2 356.3,922.1 360.3,910.9 363.9,898.3 365.4,890.3 367.5,874.6" fill="none" stroke="#2c2050" stroke-width="2.5" opacity="0.9"/>
<polyline points="315.2,987.3 312.4,990.5 307.7,996.0" fill="none" stroke="#2c2050" stroke-width="2.5" opacity="0.9"/>
<polyline points="300.3,1008.9 300.1,1009.3 299.9,1010.0 299.7,1011.1 298.7,1015.5 298.2,1018.6" fill="none" stroke="#2c2050" stroke-width="2.5" opacity="0.9"/>
<polyline points="307.7,996.0 304.3,1001.5 301.6,1006.5 300.3,1008.9" fill="none" stroke="#2c2050" stroke-width="2.5" opacity="0.9"/>
<polyline points="298.2,1018.6 297.7,1020.8 297.0,1029.8 297.2,1031.5" fill="none" stroke="#2c2050" stroke-width="2.5" opacity="0.9"/>
<polyline points="989.6,545.3 988.5,545.0 970.7,540.8 961.9,538.7 951.8,536.3 941.7,533.9 933.8,532.0 933.2,531.9 931.0,531.3" fill="none" stroke="#2c2050" stroke-width="5" opacity="0.9"/>
<polyline points="993.5,546.3 990.9,545.6 990.4,545.5 989.6,545.3" fill="none" stroke="#2c2050" stroke-width="5" opacity="0.9"/>
<polyline points="602.4,637.6 605.5,635.4" fill="none" stroke="#2c2050" stroke-width="5" opacity="0.9"/>
<polyline points="702.8,572.4 711.4,564.1 713.3,562.2 715.3,560.2 716.3,559.2 717.2,558.4 720.4,555.2 721.9,553.8 728.7,547.1 731.0,544.9 732.5,543.4 736.8,539.1 737.7,538.3 748.2,527.4 749.1,526.5 750.9,524.6 752.6,522.7 757.5,517.1 764.2,509.1 771.4,500.1 774.9,496.1 776.7,492.3" fill="none" stroke="#2c2050" stroke-width="5" opacity="0.9"/>
<polyline points="597.7,640.6 602.4,637.6" fill="none" stroke="#2c2050" stroke-width="5" opacity="0.9"/>
<polyline points="805.7,414.1 811.0,398.3 811.3,397.6 811.6,396.8 811.9,395.7 812.3,394.8 813.8,391.0 817.1,383.3 820.6,376.3 822.8,370.9 824.6,367.1 828.4,358.1 830.1,354.5 830.5,353.6 830.9,352.6 836.8,339.3 838.0,336.3 838.8,334.3 841.4,327.9 842.1,326.4 843.8,321.8 844.5,318.1 844.3,313.9 843.4,308.3 842.9,305.5 842.8,304.6 842.6,303.6 842.0,299.1 841.0,293.1 838.7,276.8 837.9,272.5 836.8,265.0 836.0,258.6 835.5,255.8 835.1,253.5 834.5,250.6 833.9,248.2 832.4,243.9 832.1,242.8 830.6,240.5 827.3,236.9 821.5,230.6 819.4,228.4" fill="none" stroke="#2c2050" stroke-width="5" opacity="0.9"/>
<polyline points="798.1,435.1 799.6,431.0 800.0,430.0 800.3,429.1 800.6,428.1 801.3,426.4 805.7,414.1" fill="none" stroke="#2c2050" stroke-width="5" opacity="0.9"/>
<polyline points="311.2,1122.1 310.0,1114.5 305.8,1097.3 304.3,1088.3 302.6,1079.3 297.4,1050.4 294.9,1035.8 294.2,1029.8 294.4,1025.4 294.7,1020.6 295.0,1018.3 296.3,1012.7 297.4,1008.6 300.3,1002.8 304.9,995.2 307.0,992.6 311.8,987.4 312.8,986.3" fill="none" stroke="#2c2050" stroke-width="2.5" opacity="0.9"/>
<polyline points="311.8,1125.7 311.6,1124.9" fill="none" stroke="#2c2050" stroke-width="2.5" opacity="0.9"/>
<polyline points="323.8,1180.4 321.1,1168.6 319.1,1160.4 316.9,1148.4 314.4,1136.0 312.7,1130.2 312.4,1129.0 311.8,1125.7" fill="none" stroke="#2c2050" stroke-width="2.5" opacity="0.9"/>
<polyline points="314.9,1124.7 315.5,1128.6 316.5,1132.9 316.9,1135.7 319.2,1145.4 322.4,1160.6 324.0,1168.9 326.4,1180.1 327.8,1187.5" fill="none" stroke="#2c2050" stroke-width="2.5" opacity="0.9"/>
<polyline points="327.8,1187.5 329.1,1192.2" fill="none" stroke="#2c2050" stroke-width="2.5" opacity="0.9"/>
<polyline points="326.9,1192.9 323.8,1180.4" fill="none" stroke="#2c2050" stroke-width="2.5" opacity="0.9"/>
<polyline points="885.0,218.2 870.1,217.0 869.1,216.9 864.0,216.5 845.4,215.0 816.3,212.6 814.9,212.5 808.2,212.0" fill="none" stroke="#2c2050" stroke-width="5" opacity="0.9"/>
<polyline points="456.0,673.2 456.9,674.2" fill="none" stroke="#2c2050" stroke-width="5" opacity="0.9"/>
<polyline points="249.4,1237.5 250.6,1236.1 257.2,1231.8 267.6,1225.6 275.2,1221.3 281.9,1217.5 284.9,1215.8 292.2,1211.7 326.9,1192.9" fill="none" stroke="#2c2050" stroke-width="2.5" opacity="0.9"/>
<polyline points="803.3,208.3 807.8,204.6 808.8,203.7" fill="none" stroke="#2c2050" stroke-width="2.5" opacity="0.9"/>
<polyline points="238.2,796.0 240.9,796.2 241.7,797.5 240.8,798.3 239.4,798.7" fill="none" stroke="#2c2050" stroke-width="2.5" opacity="0.9"/>
<polyline points="463.6,667.9 472.6,662.6 471.4,660.7 484.9,653.2 487.7,653.4 518.5,634.3 542.0,618.8 570.9,598.4 599.2,575.0 625.5,551.1 630.5,545.7 639.8,535.5 655.3,517.4 666.8,502.0 667.7,500.8 684.4,476.8 684.8,476.0 688.7,469.3 691.4,464.8 693.1,461.9 701.8,444.7 704.0,439.7 709.6,426.9 712.3,420.3 716.5,410.0 720.7,397.2 721.1,396.0 724.2,378.4 727.2,365.2 728.9,352.2 729.4,320.2 729.6,305.7 727.7,286.2 724.8,269.4 720.9,245.5" fill="none" stroke="#2c2050" stroke-width="2.5" opacity="0.9"/>
<polyline points="605.5,635.4 613.1,630.0 614.8,628.9 618.6,626.3 623.5,623.1 624.9,622.1 628.2,619.9 631.7,617.6 637.6,613.6 644.0,609.7 646.0,608.5 647.2,607.9 650.4,605.9 651.8,605.0 653.8,603.8 656.1,602.4 665.7,596.2 667.4,595.1 674.7,590.5 675.7,589.9 676.8,589.2 682.1,585.9 685.1,584.0 688.7,581.8 693.6,578.5 696.2,576.8 697.2,576.1 702.8,572.4" fill="none" stroke="#2c2050" stroke-width="5" opacity="0.9"/>
<polyline points="314.4,1121.8 314.6,1123.3 314.9,1124.7" fill="none" stroke="#2c2050" stroke-width="2.5" opacity="0.9"/>
<polyline points="311.6,1124.9 311.4,1123.7 311.2,1122.1" fill="none" stroke="#2c2050" stroke-width="2.5" opacity="0.9"/>
<polyline points="978.8,854.6 976.8,853.8 974.6,852.9 970.7,851.3 954.0,844.5 945.6,841.2 940.2,839.6 926.5,835.5 922.5,834.3 920.7,833.8 915.2,832.1 905.5,829.2 900.7,827.8 895.3,826.2 887.4,823.9 882.0,822.0 879.9,821.3 877.8,820.5 871.7,818.4 869.0,817.5 868.3,817.2 860.2,814.3 857.4,813.3 849.2,810.4 841.7,807.7 837.5,806.2 835.6,805.6 832.8,804.6 826.4,802.3 823.1,801.1 819.5,799.7" fill="none" stroke="#2c2050" stroke-width="5" opacity="0.9"/>
<polyline points="772.5,784.2 776.7,784.6 788.0,788.3 798.8,792.1 815.3,797.3 819.5,799.7" fill="none" stroke="#2c2050" stroke-width="5" opacity="0.9"/>
<polyline points="819.5,799.7 814.6,799.0 813.5,798.7 796.1,793.1 775.5,786.2 772.5,784.2" fill="none" stroke="#2c2050" stroke-width="5" opacity="0.9"/>
<polyline points="283.6,727.8 276.7,726.8 248.5,723.1 247.1,722.9 244.7,723.0 243.0,723.3 241.7,724.0" fill="none" stroke="#2c2050" stroke-width="5" opacity="0.9"/>
<polyline points="724.5,44.9 722.3,55.0 717.9,67.1 711.9,76.0 704.0,81.2 696.2,85.0 690.9,86.0 688.2,82.3 685.9,80.8 685.0,81.2 686.0,83.0 683.5,86.1 680.0,80.6 678.2,81.0 681.6,87.6 676.6,95.4 671.0,99.1 667.6,101.7 666.3,105.0 668.0,107.0 666.3,110.1 661.3,114.3 664.5,121.1 662.3,124.2 666.1,125.8 668.4,129.0 667.2,132.6 665.6,134.4 665.3,144.0 664.4,147.2 663.6,150.2 661.3,153.9 661.6,159.6 663.2,164.4 667.7,168.6 670.0,173.6 671.1,180.0 674.8,189.4 680.7,205.1 680.0,210.2 682.9,217.9 684.6,229.2 684.2,230.4 684.1,243.0 686.3,243.0 686.3,238.5 689.5,237.1 694.4,237.1 699.0,239.1 707.3,249.0 711.3,259.3 714.0,273.4 715.4,288.8 716.8,309.8 717.2,326.6 715.9,344.1 713.8,360.3 712.4,369.5" fill="none" stroke="#caa96a" stroke-width="3" opacity="0.85"/>
<polyline points="884.3,519.6 875.9,517.5 868.0,515.5 862.7,514.2 854.5,512.1 840.7,508.6 837.8,507.9 836.9,507.7 836.0,507.5 833.3,506.8 831.6,506.4 824.8,504.7 822.6,504.1 810.9,501.2 795.9,497.4" fill="none" stroke="#2c2050" stroke-width="5" opacity="0.9"/>
<line x1="298.6" y1="1427.8" x2="209.5" y2="1290.4" stroke="#ff2fb0" stroke-width="1.4" opacity="0.5"/>
<line x1="298.6" y1="1427.8" x2="379.6" y2="1422.0" stroke="#ff2fb0" stroke-width="1.4" opacity="0.5"/>
<line x1="209.5" y1="1290.4" x2="379.6" y2="1422.0" stroke="#ff2fb0" stroke-width="1.4" opacity="0.5"/>
<line x1="379.6" y1="1422.0" x2="444.4" y2="1406.2" stroke="#ff2fb0" stroke-width="1.4" opacity="0.5"/>
<line x1="379.6" y1="1422.0" x2="395.8" y2="1447.5" stroke="#ff2fb0" stroke-width="1.4" opacity="0.5"/>
<line x1="379.6" y1="1422.0" x2="358.0" y2="1329.7" stroke="#ff2fb0" stroke-width="1.4" opacity="0.5"/>
<line x1="358.0" y1="1329.7" x2="304.0" y2="1005.8" stroke="#ff2fb0" stroke-width="1.4" opacity="0.5"/>
<line x1="304.0" y1="1005.8" x2="339.1" y2="685.8" stroke="#ff2fb0" stroke-width="1.4" opacity="0.5"/>
<line x1="304.0" y1="1005.8" x2="109.6" y2="933.1" stroke="#ff2fb0" stroke-width="1.4" opacity="0.5"/>
<line x1="304.0" y1="1005.8" x2="514.6" y2="685.8" stroke="#ff2fb0" stroke-width="1.4" opacity="0.5"/>
<line x1="371.5" y1="632.8" x2="339.1" y2="685.8" stroke="#ff2fb0" stroke-width="1.4" opacity="0.5"/>
<line x1="371.5" y1="632.8" x2="449.8" y2="528.7" stroke="#ff2fb0" stroke-width="1.4" opacity="0.5"/>
<line x1="371.5" y1="632.8" x2="514.6" y2="685.8" stroke="#ff2fb0" stroke-width="1.4" opacity="0.5"/>
<line x1="371.5" y1="632.8" x2="344.5" y2="636.7" stroke="#ff2fb0" stroke-width="1.4" opacity="0.5"/>
<line x1="449.8" y1="528.7" x2="673.9" y2="377.6" stroke="#ff2fb0" stroke-width="1.4" opacity="0.5"/>
<line x1="449.8" y1="528.7" x2="430.9" y2="511.0" stroke="#ff2fb0" stroke-width="1.4" opacity="0.5"/>
<line x1="449.8" y1="528.7" x2="514.6" y2="520.9" stroke="#ff2fb0" stroke-width="1.4" opacity="0.5"/>
<line x1="673.9" y1="377.6" x2="757.6" y2="332.4" stroke="#ff2fb0" stroke-width="1.4" opacity="0.5"/>
<line x1="673.9" y1="377.6" x2="830.5" y2="171.4" stroke="#ff2fb0" stroke-width="1.4" opacity="0.5"/>
<line x1="673.9" y1="377.6" x2="652.3" y2="375.6" stroke="#ff2fb0" stroke-width="1.4" opacity="0.5"/>
<line x1="514.6" y1="520.9" x2="587.5" y2="564.1" stroke="#ff2fb0" stroke-width="1.4" opacity="0.5"/>
<line x1="514.6" y1="520.9" x2="484.9" y2="564.1" stroke="#ff2fb0" stroke-width="1.4" opacity="0.5"/>
<line x1="484.9" y1="564.1" x2="673.9" y2="377.6" stroke="#ff2fb0" stroke-width="1.4" opacity="0.5"/>
<line x1="514.6" y1="685.8" x2="587.5" y2="783.9" stroke="#ff2fb0" stroke-width="1.4" opacity="0.5"/>
<line x1="514.6" y1="685.8" x2="587.5" y2="564.1" stroke="#ff2fb0" stroke-width="1.4" opacity="0.5"/>
<line x1="587.5" y1="564.1" x2="614.5" y2="534.6" stroke="#ff2fb0" stroke-width="1.4" opacity="0.5"/>
<line x1="587.5" y1="564.1" x2="660.4" y2="579.8" stroke="#ff2fb0" stroke-width="1.4" opacity="0.5"/>
<line x1="614.5" y1="534.6" x2="641.5" y2="501.2" stroke="#ff2fb0" stroke-width="1.4" opacity="0.5"/>
<line x1="641.5" y1="501.2" x2="673.9" y2="377.6" stroke="#ff2fb0" stroke-width="1.4" opacity="0.5"/>
<line x1="641.5" y1="501.2" x2="730.6" y2="593.5" stroke="#ff2fb0" stroke-width="1.4" opacity="0.5"/>
<line x1="660.4" y1="579.8" x2="730.6" y2="593.5" stroke="#ff2fb0" stroke-width="1.4" opacity="0.5"/>
<line x1="339.1" y1="685.8" x2="322.9" y2="727.0" stroke="#ff2fb0" stroke-width="1.4" opacity="0.5"/>
<line x1="322.9" y1="727.0" x2="309.4" y2="768.2" stroke="#ff2fb0" stroke-width="1.4" opacity="0.5"/>
<line x1="322.9" y1="727.0" x2="314.8" y2="725.0" stroke="#ff2fb0" stroke-width="1.4" opacity="0.5"/>
<line x1="322.9" y1="727.0" x2="333.7" y2="729.0" stroke="#ff2fb0" stroke-width="1.4" opacity="0.5"/>
<line x1="301.3" y1="730.9" x2="322.9" y2="727.0" stroke="#ff2fb0" stroke-width="1.4" opacity="0.5"/>
<line x1="309.4" y1="768.2" x2="301.3" y2="766.3" stroke="#ff2fb0" stroke-width="1.4" opacity="0.5"/>
<line x1="309.4" y1="768.2" x2="317.5" y2="770.2" stroke="#ff2fb0" stroke-width="1.4" opacity="0.5"/>
<line x1="309.4" y1="768.2" x2="312.1" y2="780.0" stroke="#ff2fb0" stroke-width="1.4" opacity="0.5"/>
<line x1="730.6" y1="593.5" x2="655.0" y2="697.5" stroke="#ff2fb0" stroke-width="1.4" opacity="0.5"/>
<line x1="730.6" y1="593.5" x2="741.4" y2="599.4" stroke="#ff2fb0" stroke-width="1.4" opacity="0.5"/>
<line x1="655.0" y1="697.5" x2="587.5" y2="783.9" stroke="#ff2fb0" stroke-width="1.4" opacity="0.5"/>
<line x1="655.0" y1="697.5" x2="638.8" y2="693.6" stroke="#ff2fb0" stroke-width="1.4" opacity="0.5"/>
<line x1="655.0" y1="697.5" x2="671.2" y2="701.5" stroke="#ff2fb0" stroke-width="1.4" opacity="0.5"/>
<line x1="587.5" y1="783.9" x2="741.4" y2="564.1" stroke="#ff2fb0" stroke-width="1.4" opacity="0.5"/>
<line x1="587.5" y1="783.9" x2="592.9" y2="791.8" stroke="#ff2fb0" stroke-width="1.4" opacity="0.5"/>
<line x1="741.4" y1="564.1" x2="754.9" y2="562.1" stroke="#ff2fb0" stroke-width="1.4" opacity="0.5"/>
<line x1="754.9" y1="562.1" x2="754.9" y2="558.2" stroke="#ff2fb0" stroke-width="1.4" opacity="0.5"/>
<line x1="754.9" y1="562.1" x2="768.4" y2="560.1" stroke="#ff2fb0" stroke-width="1.4" opacity="0.5"/>
<line x1="754.9" y1="562.1" x2="776.5" y2="564.1" stroke="#ff2fb0" stroke-width="1.4" opacity="0.5"/>
<line x1="768.4" y1="560.1" x2="768.4" y2="556.2" stroke="#ff2fb0" stroke-width="1.4" opacity="0.5"/>
<line x1="768.4" y1="560.1" x2="781.9" y2="569.9" stroke="#ff2fb0" stroke-width="1.4" opacity="0.5"/>
<line x1="768.4" y1="560.1" x2="776.5" y2="564.1" stroke="#ff2fb0" stroke-width="1.4" opacity="0.5"/>
<line x1="776.5" y1="564.1" x2="781.9" y2="569.9" stroke="#ff2fb0" stroke-width="1.4" opacity="0.5"/>
<line x1="781.9" y1="569.9" x2="792.7" y2="571.9" stroke="#ff2fb0" stroke-width="1.4" opacity="0.5"/>
<line x1="757.6" y1="332.4" x2="754.9" y2="324.5" stroke="#ff2fb0" stroke-width="1.4" opacity="0.5"/>
<line x1="757.6" y1="332.4" x2="779.2" y2="334.4" stroke="#ff2fb0" stroke-width="1.4" opacity="0.5"/>
<line x1="757.6" y1="332.4" x2="763.0" y2="338.3" stroke="#ff2fb0" stroke-width="1.4" opacity="0.5"/>
<line x1="722.5" y1="628.8" x2="741.4" y2="626.9" stroke="#ff2fb0" stroke-width="1.4" opacity="0.5"/>
<line x1="741.4" y1="626.9" x2="738.7" y2="622.9" stroke="#ff2fb0" stroke-width="1.4" opacity="0.5"/>
<line x1="741.4" y1="626.9" x2="744.1" y2="630.8" stroke="#ff2fb0" stroke-width="1.4" opacity="0.5"/>
<line x1="741.4" y1="626.9" x2="757.6" y2="622.9" stroke="#ff2fb0" stroke-width="1.4" opacity="0.5"/>
<line x1="757.6" y1="622.9" x2="763.0" y2="626.9" stroke="#ff2fb0" stroke-width="1.4" opacity="0.5"/>
<line x1="63.0" y1="195.0" x2="121.7" y2="207.5" stroke="#ff2fb0" stroke-width="1.4" opacity="0.5"/>
<line x1="121.7" y1="207.5" x2="312.0" y2="102.3" stroke="#ff2fb0" stroke-width="1.4" opacity="0.5"/>
<line x1="121.7" y1="207.5" x2="123.9" y2="208.5" stroke="#ff2fb0" stroke-width="1.4" opacity="0.5"/>
<line x1="830.5" y1="171.4" x2="865.6" y2="102.7" stroke="#ff2fb0" stroke-width="1.4" opacity="0.5"/>
<line x1="865.6" y1="102.7" x2="871.0" y2="98.8" stroke="#ff2fb0" stroke-width="1.4" opacity="0.5"/>
<circle cx="298.6" cy="1427.8" r="2.6" fill="#e8c46a" opacity="0.8"/>
<text x="307.6" y="1421.8" font-size="15" fill="#e8c46a" text-anchor="start" opacity="0.95">Jomtien Beach</text>
<circle cx="209.5" cy="1290.4" r="2.6" fill="#e8c46a" opacity="0.8"/>
<circle cx="379.6" cy="1422.0" r="2.6" fill="#e8c46a" opacity="0.8"/>
<circle cx="444.4" cy="1406.2" r="2.6" fill="#e8c46a" opacity="0.8"/>
<circle cx="395.8" cy="1447.5" r="2.6" fill="#e8c46a" opacity="0.8"/>
<circle cx="358.0" cy="1329.7" r="2.6" fill="#e8c46a" opacity="0.8"/>
<text x="370.0" y="1331.7" font-size="15" fill="#e8c46a" text-anchor="start" opacity="0.95">bus stop</text>
<circle cx="304.0" cy="1005.8" r="2.6" fill="#8a6ae8" opacity="0.8"/>
<text x="313.0" y="999.8" font-size="15" fill="#8a6ae8" text-anchor="start" opacity="0.95">Pratumnak</text>
<circle cx="109.6" cy="933.1" r="2.6" fill="#8a6ae8" opacity="0.8"/>
<text x="118.6" y="927.1" font-size="15" fill="#8a6ae8" text-anchor="start" opacity="0.95">Big Buddha</text>
<circle cx="371.5" cy="632.8" r="2.6" fill="#00e5ff" opacity="0.8"/>
<text x="380.5" y="626.8" font-size="15" fill="#00e5ff" text-anchor="start" opacity="0.95">Beach Rd S</text>
<circle cx="344.5" cy="636.7" r="2.6" fill="#00e5ff" opacity="0.8"/>
<circle cx="449.8" cy="528.7" r="2.6" fill="#00e5ff" opacity="0.8"/>
<text x="439.8" y="522.7" font-size="15" fill="#00e5ff" text-anchor="end" opacity="0.95">Beach Rd C</text>
<circle cx="439.0" cy="548.3" r="5" fill="#00e5ff" opacity="0.95"><title>Tequila Queen A-Go-Go</title></circle>
<circle cx="439.0" cy="548.3" r="9" fill="none" stroke="#00e5ff" opacity="0.35"/>
<circle cx="430.9" cy="511.0" r="2.6" fill="#00e5ff" opacity="0.8"/>
<circle cx="673.9" cy="377.6" r="2.6" fill="#00e5ff" opacity="0.8"/>
<text x="682.9" y="371.6" font-size="15" fill="#00e5ff" text-anchor="start" opacity="0.95">Beach Rd N</text>
<circle cx="652.3" cy="375.6" r="5" fill="#00e5ff" opacity="0.95"><title>Blue Dog</title></circle>
<circle cx="652.3" cy="375.6" r="9" fill="none" stroke="#00e5ff" opacity="0.35"/>
<circle cx="657.7" cy="371.7" r="5" fill="#00e5ff" opacity="0.95"><title>Stinky Bar</title></circle>
<circle cx="657.7" cy="371.7" r="9" fill="none" stroke="#00e5ff" opacity="0.35"/>
<circle cx="514.6" cy="520.9" r="2.6" fill="#00e5ff" opacity="0.8"/>
<text x="524.6" y="536.9" font-size="15" fill="#00e5ff" text-anchor="start" opacity="0.95">Central</text>
<circle cx="484.9" cy="564.1" r="2.6" fill="#00e5ff" opacity="0.8"/>
<text x="474.9" y="568.1" font-size="15" fill="#00e5ff" text-anchor="end" opacity="0.95">police</text>
<circle cx="514.6" cy="685.8" r="2.6" fill="#7a8aa8" opacity="0.8"/>
<circle cx="587.5" cy="564.1" r="2.6" fill="#7a8aa8" opacity="0.8"/>
<text x="577.5" y="558.1" font-size="15" fill="#7a8aa8" text-anchor="end" opacity="0.95">Second Rd</text>
<circle cx="614.5" cy="534.6" r="2.6" fill="#7a8aa8" opacity="0.8"/>
<circle cx="641.5" cy="501.2" r="2.6" fill="#7a8aa8" opacity="0.8"/>
<text x="650.5" y="495.2" font-size="15" fill="#7a8aa8" text-anchor="start" opacity="0.95">Pattaya Klang</text>
<circle cx="660.4" cy="579.8" r="2.6" fill="#c46ae8" opacity="0.8"/>
<text x="650.4" y="593.8" font-size="15" fill="#c46ae8" text-anchor="end" opacity="0.95">Myth Night</text>
<circle cx="665.8" cy="575.8" r="5" fill="#c46ae8" opacity="0.95"><title>Candy Bar 2</title></circle>
<circle cx="665.8" cy="575.8" r="9" fill="none" stroke="#c46ae8" opacity="0.35"/>
<circle cx="339.1" cy="685.8" r="2.6" fill="#ff1493" opacity="0.8"/>
<text x="351.1" y="689.8" font-size="15" fill="#ff1493" text-anchor="start" opacity="0.95">Walking St gate</text>
<circle cx="322.9" cy="727.0" r="2.6" fill="#ff1493" opacity="0.8"/>
<circle cx="301.3" cy="730.9" r="2.6" fill="#ff1493" opacity="0.8"/>
<circle cx="309.4" cy="768.2" r="2.6" fill="#ff1493" opacity="0.8"/>
<circle cx="314.8" cy="725.0" r="5" fill="#ff1493" opacity="0.95"><title>Neon Paradise A-Go-Go</title></circle>
<circle cx="314.8" cy="725.0" r="9" fill="none" stroke="#ff1493" opacity="0.35"/>
<circle cx="333.7" cy="729.0" r="5" fill="#ff1493" opacity="0.95"><title>Club Mirage</title></circle>
<circle cx="333.7" cy="729.0" r="9" fill="none" stroke="#ff1493" opacity="0.35"/>
<circle cx="301.3" cy="766.3" r="5" fill="#ff1493" opacity="0.95"><title>Crystal Palace A-Go-Go</title></circle>
<circle cx="301.3" cy="766.3" r="9" fill="none" stroke="#ff1493" opacity="0.35"/>
<circle cx="317.5" cy="770.2" r="5" fill="#ff1493" opacity="0.95"><title>Paradise Nights Club</title></circle>
<circle cx="317.5" cy="770.2" r="9" fill="none" stroke="#ff1493" opacity="0.35"/>
<circle cx="312.1" cy="780.0" r="5" fill="#ff1493" opacity="0.95"><title>Midnight Sun Bar</title></circle>
<circle cx="312.1" cy="780.0" r="9" fill="none" stroke="#ff1493" opacity="0.35"/>
<circle cx="730.6" cy="593.5" r="2.6" fill="#ff6a9a" opacity="0.8"/>
<circle cx="655.0" cy="697.5" r="2.6" fill="#ff6a9a" opacity="0.8"/>
<text x="665.0" y="709.5" font-size="15" fill="#ff6a9a" text-anchor="start" opacity="0.95">Buakhao market</text>
<circle cx="587.5" cy="783.9" r="2.6" fill="#ff6a9a" opacity="0.8"/>
<circle cx="638.8" cy="693.6" r="5" fill="#ff6a9a" opacity="0.95"><title>Candy Bar</title></circle>
<circle cx="638.8" cy="693.6" r="9" fill="none" stroke="#ff6a9a" opacity="0.35"/>
<circle cx="741.4" cy="599.4" r="5" fill="#ff6a9a" opacity="0.95"><title>Lucky Tiger Bar</title></circle>
<circle cx="741.4" cy="599.4" r="9" fill="none" stroke="#ff6a9a" opacity="0.35"/>
<circle cx="722.5" cy="587.6" r="5" fill="#ff6a9a" opacity="0.95"><title>Rock Factory</title></circle>
<circle cx="722.5" cy="587.6" r="9" fill="none" stroke="#ff6a9a" opacity="0.35"/>
<circle cx="671.2" cy="701.5" r="5" fill="#ff6a9a" opacity="0.95"><title>Silk Rose Bar</title></circle>
<circle cx="671.2" cy="701.5" r="9" fill="none" stroke="#ff6a9a" opacity="0.35"/>
<circle cx="592.9" cy="791.8" r="5" fill="#ff6a9a" opacity="0.95"><title>Jasmine Garden Bar</title></circle>
<circle cx="592.9" cy="791.8" r="9" fill="none" stroke="#ff6a9a" opacity="0.35"/>
<circle cx="741.4" cy="564.1" r="2.6" fill="#44dd88" opacity="0.8"/>
<text x="749.4" y="554.1" font-size="15" fill="#44dd88" text-anchor="start" opacity="0.95">Tree Town</text>
<circle cx="754.9" cy="562.1" r="2.6" fill="#44dd88" opacity="0.8"/>
<circle cx="768.4" cy="560.1" r="2.6" fill="#44dd88" opacity="0.8"/>
<circle cx="776.5" cy="564.1" r="2.6" fill="#44dd88" opacity="0.8"/>
<circle cx="781.9" cy="569.9" r="2.6" fill="#44dd88" opacity="0.8"/>
<circle cx="754.9" cy="558.2" r="5" fill="#44dd88" opacity="0.95"><title>Gold Rush Lounge</title></circle>
<circle cx="754.9" cy="558.2" r="9" fill="none" stroke="#44dd88" opacity="0.35"/>
<circle cx="768.4" cy="556.2" r="5" fill="#44dd88" opacity="0.95"><title>Starlight Bar</title></circle>
<circle cx="768.4" cy="556.2" r="9" fill="none" stroke="#44dd88" opacity="0.35"/>
<circle cx="792.7" cy="571.9" r="5" fill="#44dd88" opacity="0.95"><title>Rainbow Girls Bar</title></circle>
<circle cx="792.7" cy="571.9" r="9" fill="none" stroke="#44dd88" opacity="0.35"/>
<circle cx="798.1" cy="573.9" r="2.6" fill="#44dd88" opacity="0.8"/>
<circle cx="757.6" cy="332.4" r="2.6" fill="#ff9a3c" opacity="0.8"/>
<text x="766.6" y="326.4" font-size="15" fill="#ff9a3c" text-anchor="start" opacity="0.95">Soi 6</text>
<circle cx="754.9" cy="324.5" r="5" fill="#ff9a3c" opacity="0.95"><title>Pink Lotus Lounge</title></circle>
<circle cx="754.9" cy="324.5" r="9" fill="none" stroke="#ff9a3c" opacity="0.35"/>
<circle cx="779.2" cy="334.4" r="5" fill="#ff9a3c" opacity="0.95"><title>Golden Dragon Bar</title></circle>
<circle cx="779.2" cy="334.4" r="9" fill="none" stroke="#ff9a3c" opacity="0.35"/>
<circle cx="763.0" cy="338.3" r="5" fill="#ff9a3c" opacity="0.95"><title>Sunset Dreams Lounge</title></circle>
<circle cx="763.0" cy="338.3" r="9" fill="none" stroke="#ff9a3c" opacity="0.35"/>
<circle cx="795.4" cy="330.4" r="5" fill="#ff9a3c" opacity="0.95"><title>Queen Vic Inn</title></circle>
<circle cx="795.4" cy="330.4" r="9" fill="none" stroke="#ff9a3c" opacity="0.35"/>
<circle cx="744.1" cy="607.2" r="2.6" fill="#ff6a9a" opacity="0.8"/>
<circle cx="795.4" cy="330.4" r="2.6" fill="#ff9a3c" opacity="0.8"/>
<circle cx="722.5" cy="628.8" r="2.6" fill="#b06aff" opacity="0.8"/>
<text x="731.5" y="622.8" font-size="15" fill="#b06aff" text-anchor="start" opacity="0.95">LK Metro</text>
<circle cx="741.4" cy="626.9" r="2.6" fill="#b06aff" opacity="0.8"/>
<circle cx="757.6" cy="622.9" r="2.6" fill="#b06aff" opacity="0.8"/>
<circle cx="738.7" cy="622.9" r="5" fill="#b06aff" opacity="0.95"><title>KINKY Go-Go</title></circle>
<circle cx="738.7" cy="622.9" r="9" fill="none" stroke="#b06aff" opacity="0.35"/>
<circle cx="744.1" cy="630.8" r="5" fill="#b06aff" opacity="0.95"><title>Slutty Go-Go</title></circle>
<circle cx="744.1" cy="630.8" r="9" fill="none" stroke="#b06aff" opacity="0.35"/>
<circle cx="763.0" cy="626.9" r="5" fill="#b06aff" opacity="0.95"><title>Las Vegas Go-Go</title></circle>
<circle cx="763.0" cy="626.9" r="9" fill="none" stroke="#b06aff" opacity="0.35"/>
<circle cx="830.5" cy="171.4" r="2.6" fill="#3cd0a8" opacity="0.8"/>
<text x="842.5" y="175.4" font-size="15" fill="#3cd0a8" text-anchor="start" opacity="0.95">Naklua</text>
<circle cx="865.6" cy="102.7" r="2.6" fill="#3cd0a8" opacity="0.8"/>
<circle cx="871.0" cy="98.8" r="2.6" fill="#3cd0a8" opacity="0.8"/>
<text x="266.2" y="748.6" font-size="16" fill="#ff1493" opacity="0.9">Walking Street</text>
<text x="633.4" y="744.7" font-size="16" fill="#ff6a9a" opacity="0.9">Soi Buakhao</text>
<rect x="34" y="30" width="324" height="234" fill="#0b0b22" stroke="#a8e83c" stroke-width="1.5" opacity="0.95" rx="8"/>
<text x="46" y="48" font-size="15" fill="#a8e83c">THE DARKSIDE — a motosai ride east</text>
<polyline points="159.6,217.7 159.5,217.5 159.4,217.3 159.1,216.0 159.1,215.7 158.7,213.6 158.6,213.2 158.2,211.3 158.0,210.4 157.9,209.8 157.9,209.8 157.8,209.5 157.5,207.7 157.5,207.3 157.3,206.8 157.1,206.2 156.8,206.0 156.4,205.7 155.8,205.5 155.0,205.3 154.9,205.3 154.0,205.0 153.0,204.6 151.6,204.0 150.6,203.2 149.2,201.7 148.5,200.5 147.5,198.6 147.2,198.1 146.9,197.8 146.5,197.5 146.1,197.5 145.7,197.6 145.4,197.7 145.1,197.9 144.2,198.5 143.3,199.4 142.4,200.0 141.8,200.2 141.5,200.3 140.6,200.6 139.8,200.8 139.5,200.9 139.2,201.0 138.4,201.3 137.5,201.6 137.4,201.7 137.2,201.8 135.6,202.6 134.4,203.3 133.8,203.6 133.7,203.7 132.5,204.0 131.6,204.2 131.0,204.3 129.4,204.7 127.2,205.3 125.9,205.7 125.6,205.8 124.4,206.1 123.4,206.2 122.9,206.2 121.2,206.0 119.7,205.8 117.3,205.5 115.1,205.3 114.8,205.3 114.7,205.2 113.9,205.2 113.5,205.1 112.5,205.0 111.5,205.0 109.4,204.8 109.1,204.8 108.3,204.8 106.7,204.8 105.6,204.8 104.1,205.0 103.5,205.1 103.2,205.1 101.8,205.2 101.4,205.2 100.7,205.2 100.1,205.3 99.6,205.3 97.5,205.3 95.9,205.2 95.3,205.1 95.1,205.1 93.6,204.8 93.3,204.7 92.5,204.5 91.7,204.3 90.8,203.9 90.2,203.6 89.6,203.2 89.1,202.8 88.2,202.3 87.8,202.0 86.6,201.4 85.4,200.9 85.3,200.9 85.0,200.8 83.8,200.4" fill="none" stroke="#2c2050" stroke-width="3"/>
<polyline points="78.8,198.9 77.6,198.6 75.8,198.1 73.7,197.6 72.7,197.3 71.3,197.0 68.0,196.4 66.1,196.1 63.9,195.8 61.2,195.3 58.2,194.9 58.1,194.9 57.5,194.8" fill="none" stroke="#2c2050" stroke-width="3"/>
<polyline points="83.8,200.4 81.7,199.7 80.4,199.3" fill="none" stroke="#2c2050" stroke-width="3"/>
<polyline points="80.4,199.3 79.3,199.0 78.8,198.9" fill="none" stroke="#2c2050" stroke-width="3"/>
<circle cx="63.0" cy="195.0" r="2.6" fill="#a8e83c"/>
<text x="69.0" y="187.0" font-size="13" fill="#a8e83c" text-anchor="start">Sukhumvit</text>
<circle cx="121.7" cy="207.5" r="2.6" fill="#a8e83c"/>
<text x="115.7" y="223.5" font-size="13" fill="#a8e83c" text-anchor="end">Khao Talo</text>
<circle cx="123.9" cy="208.5" r="5" fill="#a8e83c"/>
<text x="131.9" y="200.5" font-size="13" fill="#a8e83c" text-anchor="start">Daeng's Place</text>
<circle cx="312.0" cy="102.3" r="2.6" fill="#a8e83c"/>
<text x="304.0" y="94.3" font-size="13" fill="#a8e83c" text-anchor="end">Lake Mabprachan</text>
<text x="34" y="1514" font-size="26" fill="#ffe600" style="font-weight:bold">THE LAST BAHT BUS</text>
<text x="34" y="1538" font-size="15" fill="#8a7ab0">greater Pattaya — OSM-anchored, still a bar-mat at heart</text>
<text x="42" y="655" font-size="17" fill="#3c78a8" transform="rotate(-90 42 655)">T H E   G U L F</text>
<text x="984" y="1530" font-size="22" fill="#8a7ab0">N ↑</text>
</svg>